<svg width="912" height="912" viewBox="0 0 912 912" fill="none" xmlns="http://www.w3.org/2000/svg">
<path d="M6 311H906M311 906L311 6M600 906L600 6M6 600H906M43 906H869C889.435 906 906 889.435 906 869V43C906 22.5655 889.435 6 869 6H43C22.5655 6 6 22.5655 6 43V869C6 889.435 22.5655 906 43 906Z" stroke="black" stroke-width="12"/>
<path d="M6 600H311V906H44C23.0132 906 6 888.987 6 868V600Z" fill="black"/>
<path d="M602 6H871C890.33 6 906 21.67 906 41V310H602V6Z" fill="black"/>
<path d="M6 40C6 21.2223 21.2223 6 40 6H310V311H6V40Z" fill="black"/>
</svg>
