<?xml version="1.0" encoding="UTF-8" standalone="no"?>
<!DOCTYPE svg PUBLIC "-//W3C//DTD SVG 1.1//EN" "http://www.w3.org/Graphics/SVG/1.1/DTD/svg11.dtd">
<svg width="100%" height="100%" viewBox="0 0 912 912" version="1.1" xmlns="http://www.w3.org/2000/svg" xmlns:xlink="http://www.w3.org/1999/xlink" xml:space="preserve" xmlns:serif="http://www.serif.com/" style="fill-rule:evenodd;clip-rule:evenodd;stroke-linecap:round;stroke-linejoin:round;stroke-miterlimit:1.5;">
    <rect id="Artboard1" x="0" y="0" width="912" height="912" style="fill:none;"/>
    <g id="Artboard11" serif:id="Artboard1">
        <path d="M6,456L6,51C6,26.164 26.164,6 51,6L456,6L456,456L6,456Z"/>
        <g transform="matrix(1.37472,0,0,1.30998,-45.9061,-37.216)">
            <path d="M692.436,67.342L692.436,685.674C692.436,704.633 677.769,720.025 659.702,720.025L70.492,720.025C52.425,720.025 37.758,704.633 37.758,685.674L37.758,67.342C37.758,48.382 52.425,32.99 70.492,32.99L659.702,32.99C677.769,32.99 692.436,48.382 692.436,67.342Z" style="fill:none;stroke:black;stroke-width:4.14px;"/>
        </g>
        <g>
            <path d="M456,906L456,6" style="fill:none;stroke:black;stroke-width:5.56px;"/>
            <path d="M906,456L6,456" style="fill:none;stroke:black;stroke-width:5.56px;"/>
        </g>
    </g>
</svg>
