<?xml version="1.0" encoding="UTF-8" standalone="no"?><!DOCTYPE svg PUBLIC "-//W3C//DTD SVG 1.1//EN" "http://www.w3.org/Graphics/SVG/1.1/DTD/svg11.dtd"><svg width="100%" height="100%" viewBox="0 0 96 96" version="1.1" xmlns="http://www.w3.org/2000/svg" xmlns:xlink="http://www.w3.org/1999/xlink" xml:space="preserve" xmlns:serif="http://www.serif.com/" style="fill-rule:evenodd;clip-rule:evenodd;stroke-linecap:round;stroke-linejoin:round;stroke-miterlimit:1.5;"><path d="M33.186,48l7.407,-12.829l14.814,-0l7.407,12.829l-7.407,12.829l-14.814,0l-7.407,-12.829Z" style="fill:none;stroke:#000;stroke-width:2px;"/><path d="M33.186,21.335l7.407,12.829l14.814,0l7.407,-12.829l-7.407,-12.83l-14.814,0l-7.407,12.83Z" style="fill:none;stroke:#000;stroke-width:2px;"/><path d="M33.186,74.665l7.407,12.83l14.814,-0l7.407,-12.83l-7.407,-12.829l-14.814,-0l-7.407,12.829Z" style="fill:none;stroke:#000;stroke-width:2px;"/><path d="M10.076,34.68l7.407,-12.83l14.814,0l7.407,12.83l-7.407,12.829l-14.814,-0l-7.407,-12.829Z" style="fill:none;stroke:#000;stroke-width:2px;"/><path d="M10.076,61.324l7.407,-12.829l14.814,-0l7.407,12.829l-7.407,12.829l-14.814,0l-7.407,-12.829Z" style="fill:none;stroke:#000;stroke-width:2px;"/><path d="M56.296,61.324l7.407,-12.829l14.814,-0l7.407,12.829l-7.407,12.829l-14.814,0l-7.407,-12.829Z" style="fill:none;stroke:#000;stroke-width:2px;"/><path d="M56.296,34.68l7.407,-12.83l14.814,0l7.407,12.83l-7.407,12.829l-14.814,-0l-7.407,-12.829Z" style="fill:none;stroke:#000;stroke-width:2px;"/></svg>
