<?xml version="1.0" encoding="UTF-8" standalone="no"?>
<!DOCTYPE svg PUBLIC "-//W3C//DTD SVG 1.1//EN" "http://www.w3.org/Graphics/SVG/1.1/DTD/svg11.dtd">
<svg width="100%" height="100%" viewBox="0 0 912 912" version="1.1" xmlns="http://www.w3.org/2000/svg" xmlns:xlink="http://www.w3.org/1999/xlink" xml:space="preserve" xmlns:serif="http://www.serif.com/" style="fill-rule:evenodd;clip-rule:evenodd;stroke-linecap:round;stroke-linejoin:round;stroke-miterlimit:1.5;">
    <rect id="Artboard1" x="0" y="0" width="912" height="912" style="fill:none;"/>
    <g id="Artboard11" serif:id="Artboard1">
        <g transform="matrix(0.580657,0,0,1,191.22,-150.667)">
            <g transform="matrix(1,0,0,1,-2.27374e-13,379.167)">
                <path d="M906,456L6,456" style="fill:none;stroke:black;stroke-width:20.38px;"/>
            </g>
            <g transform="matrix(1,0,0,1,-2.27374e-13,75.8333)">
                <path d="M906,456L6,456" style="fill:none;stroke:black;stroke-width:20.38px;"/>
            </g>
            <g transform="matrix(1,0,0,1,-1.7053e-13,-77.8333)">
                <path d="M906,456L6,456" style="fill:none;stroke:black;stroke-width:20.38px;"/>
            </g>
            <g transform="matrix(1,0,0,1,-3.41061e-13,227.5)">
                <path d="M906,456L6,456" style="fill:none;stroke:black;stroke-width:20.38px;"/>
            </g>
        </g>
        <g transform="matrix(5.31914e-17,0.868682,-1,6.12323e-17,911,60.8809)">
            <g transform="matrix(1,0,0,1,0,151.667)">
                <path d="M906,456L6,456" style="fill:none;stroke:black;stroke-width:17.79px;"/>
            </g>
            <g transform="matrix(1,0,0,1,0,-151.667)">
                <path d="M906,456L6,456" style="fill:none;stroke:black;stroke-width:17.79px;"/>
            </g>
        </g>
    </g>
</svg>
