<svg width="1474" height="1166" viewBox="0 0 1474 1166" fill="none" xmlns="http://www.w3.org/2000/svg">
<path d="M977.218 122.369C978.732 122.364 980.246 122.356 981.76 122.347C985.847 122.329 989.934 122.342 994.021 122.361C998.319 122.378 1002.62 122.369 1006.92 122.364C1014.14 122.359 1021.36 122.375 1028.58 122.403C1036.89 122.435 1045.21 122.435 1053.52 122.418C1061.56 122.402 1069.59 122.409 1077.63 122.426C1081.03 122.433 1084.43 122.432 1087.83 122.424C1091.85 122.417 1095.87 122.429 1099.89 122.456C1101.35 122.463 1102.81 122.463 1104.28 122.456C1118.63 122.393 1131.1 125.253 1143.75 132.187C1145.1 132.914 1145.1 132.914 1146.47 133.655C1153.35 137.453 1159.36 141.484 1165 147C1165.91 147.868 1166.81 148.735 1167.75 149.629C1189.81 171.683 1194.49 200.261 1194.54 230.306C1194.54 232.301 1194.53 234.297 1194.52 236.292C1194.51 239.868 1194.53 243.443 1194.54 247.019C1194.56 253.988 1194.55 260.957 1194.54 267.925C1194.53 273.589 1194.53 279.253 1194.54 284.917C1194.54 285.728 1194.54 286.539 1194.54 287.374C1194.54 289.021 1194.54 290.669 1194.54 292.316C1194.55 307.694 1194.54 323.073 1194.52 338.451C1194.5 351.632 1194.5 364.813 1194.52 377.995C1194.54 393.345 1194.55 408.696 1194.54 424.046C1194.54 425.683 1194.54 427.32 1194.54 428.956C1194.53 430.164 1194.53 430.164 1194.53 431.396C1194.53 437.057 1194.54 442.718 1194.55 448.379C1194.56 455.271 1194.55 462.163 1194.53 469.055C1194.52 472.568 1194.52 476.081 1194.53 479.594C1194.54 483.405 1194.53 487.214 1194.51 491.025C1194.52 492.683 1194.52 492.683 1194.54 494.375C1194.47 500.75 1193.74 505.708 1190 511C1185.09 515.675 1181.06 516.301 1174.5 516.215C1169.75 515.807 1166.97 514.027 1163.75 510.625C1160.14 505.216 1159.71 500.597 1159.74 494.194C1159.74 493.307 1159.73 492.42 1159.73 491.507C1159.72 488.535 1159.72 485.564 1159.73 482.592C1159.72 480.461 1159.72 478.331 1159.71 476.2C1159.7 471.612 1159.7 467.025 1159.7 462.437C1159.69 455.185 1159.68 447.933 1159.65 440.681C1159.61 422.669 1159.57 404.657 1159.55 386.645C1159.54 372.646 1159.51 358.646 1159.47 344.647C1159.45 337.436 1159.44 330.224 1159.44 323.012C1159.44 318.529 1159.43 314.046 1159.41 309.563C1159.4 307.482 1159.4 305.401 1159.41 303.319C1159.41 300.481 1159.4 297.644 1159.39 294.806C1159.39 293.979 1159.4 293.153 1159.4 292.302C1159.34 286.349 1157.96 283.134 1153.88 278.688C1149.87 276.335 1146.54 276.192 1142 277C1138.2 279.005 1136.38 280.427 1134 284C1133.7 286.241 1133.7 286.241 1133.75 288.767C1133.74 289.753 1133.74 290.74 1133.73 291.757C1133.74 292.844 1133.74 293.931 1133.75 295.051C1133.75 296.203 1133.74 297.356 1133.74 298.543C1133.73 301.748 1133.74 304.952 1133.74 308.157C1133.75 311.611 1133.74 315.065 1133.73 318.519C1133.73 324.507 1133.72 330.495 1133.73 336.483C1133.73 345.15 1133.72 353.816 1133.7 362.483C1133.68 376.554 1133.66 390.626 1133.64 404.698C1133.64 405.54 1133.64 406.383 1133.64 407.251C1133.63 419.201 1133.62 431.152 1133.62 443.102C1133.62 443.943 1133.62 444.784 1133.62 445.651C1133.62 446.491 1133.62 447.331 1133.62 448.196C1133.61 462.208 1133.6 476.221 1133.56 490.233C1133.55 498.876 1133.54 507.518 1133.55 516.161C1133.56 522.086 1133.55 528.011 1133.53 533.937C1133.52 537.354 1133.51 540.772 1133.53 544.189C1133.54 547.898 1133.53 551.606 1133.51 555.314C1133.51 556.39 1133.52 557.466 1133.53 558.574C1133.47 564.876 1132.69 569.768 1129 575C1124.19 579.457 1120.77 581.431 1114.27 581.242C1108.19 580.594 1104.93 577.179 1101.2 572.719C1098.96 569.507 1098.87 566.672 1098.87 562.884C1098.87 561.82 1098.87 560.755 1098.86 559.658C1098.87 558.484 1098.87 557.31 1098.87 556.101C1098.87 554.235 1098.87 554.235 1098.86 552.332C1098.86 549.596 1098.86 546.86 1098.86 544.124C1098.86 539.672 1098.85 535.221 1098.85 530.77C1098.84 524.307 1098.83 517.844 1098.83 511.381C1098.83 501.168 1098.81 490.954 1098.79 480.741C1098.78 477.247 1098.78 473.754 1098.77 470.261C1098.77 469.388 1098.77 468.515 1098.77 467.615C1098.75 457.675 1098.73 447.734 1098.72 437.793C1098.72 436.884 1098.71 435.975 1098.71 435.039C1098.69 420.309 1098.68 405.58 1098.67 390.85C1098.66 375.732 1098.64 360.615 1098.6 345.498C1098.58 336.17 1098.57 326.843 1098.58 317.515C1098.58 311.124 1098.57 304.732 1098.55 298.341C1098.54 294.652 1098.53 290.963 1098.54 287.274C1098.55 283.276 1098.53 279.279 1098.51 275.28C1098.52 274.113 1098.53 272.946 1098.54 271.743C1098.48 265.56 1098.29 261.626 1094 257C1089.62 254.567 1086 253.255 1081 254C1077.34 256.04 1075.33 257.504 1073 261C1072.7 263.551 1072.7 263.551 1072.75 266.469C1072.74 267.613 1072.74 268.756 1072.73 269.935C1072.74 271.197 1072.74 272.459 1072.75 273.759C1072.75 275.109 1072.74 276.459 1072.74 277.809C1072.73 281.526 1072.74 285.244 1072.74 288.961C1072.75 292.967 1072.74 296.974 1072.73 300.98C1072.73 307.926 1072.72 314.871 1072.73 321.817C1072.73 331.868 1072.72 341.919 1072.7 351.97C1072.68 368.288 1072.66 384.606 1072.64 400.924C1072.64 402.389 1072.64 402.389 1072.64 403.885C1072.63 417.746 1072.62 431.607 1072.62 445.468C1072.62 446.444 1072.62 447.419 1072.62 448.425C1072.62 449.399 1072.62 450.373 1072.62 451.377C1072.61 467.627 1072.6 483.877 1072.56 500.126C1072.55 510.151 1072.54 520.175 1072.55 530.2C1072.56 537.071 1072.55 543.943 1072.53 550.814C1072.52 554.779 1072.51 558.743 1072.53 562.708C1072.54 566.339 1072.53 569.97 1072.51 573.602C1072.51 575.533 1072.52 577.465 1072.53 579.397C1072.47 587.067 1071.82 593.128 1066.18 598.84C1065.61 599.202 1065.03 599.564 1064.44 599.938C1063.86 600.318 1063.28 600.698 1062.68 601.09C1058.74 603.222 1055.41 603.367 1051 603C1047.24 601.445 1043.45 599.308 1041 596C1041 595.01 1041 594.02 1041 593C1040.34 593 1039.68 593 1039 593C1038 589.998 1037.87 588.018 1037.87 584.882C1037.87 583.816 1037.86 582.751 1037.86 581.653C1037.86 580.479 1037.86 579.304 1037.86 578.094C1037.86 576.849 1037.86 575.605 1037.85 574.323C1037.85 570.862 1037.84 567.401 1037.84 563.939C1037.84 560.209 1037.83 556.479 1037.83 552.749C1037.82 546.283 1037.81 539.817 1037.8 533.351C1037.79 523.133 1037.77 512.916 1037.75 502.698C1037.74 499.204 1037.73 495.71 1037.73 492.215C1037.72 491.342 1037.72 490.469 1037.72 489.569C1037.7 479.625 1037.68 469.682 1037.66 459.738C1037.66 458.829 1037.66 457.92 1037.66 456.983C1037.63 442.246 1037.61 427.51 1037.6 412.773C1037.58 397.65 1037.55 382.527 1037.51 367.403C1037.49 358.071 1037.47 348.739 1037.47 339.407C1037.47 333.014 1037.46 326.621 1037.43 320.227C1037.42 316.536 1037.42 312.846 1037.42 309.155C1037.43 305.157 1037.41 301.159 1037.39 297.16C1037.4 295.405 1037.4 295.405 1037.41 293.614C1037.4 292.544 1037.39 291.473 1037.38 290.37C1037.38 289.447 1037.38 288.524 1037.38 287.573C1036.92 284.431 1035.85 282.563 1034 280C1029.52 276.976 1025.29 276.031 1020 277C1016.25 279.015 1014.36 280.455 1012 284C1011.7 286.145 1011.7 286.145 1011.75 288.548C1011.74 289.486 1011.74 290.424 1011.73 291.391C1011.74 292.423 1011.74 293.455 1011.75 294.519C1011.75 295.615 1011.74 296.71 1011.74 297.839C1011.73 301.528 1011.74 305.217 1011.74 308.907C1011.74 311.545 1011.74 314.182 1011.73 316.82C1011.73 322.51 1011.72 328.2 1011.73 333.89C1011.73 342.126 1011.72 350.362 1011.7 358.598C1011.68 371.97 1011.66 385.343 1011.64 398.716C1011.64 399.917 1011.64 399.917 1011.64 401.142C1011.63 412.498 1011.62 423.854 1011.62 435.21C1011.62 436.01 1011.62 436.809 1011.62 437.632C1011.62 438.43 1011.62 439.228 1011.62 440.051C1011.61 453.367 1011.6 466.683 1011.56 479.999C1011.55 488.212 1011.54 496.425 1011.55 504.637C1011.56 510.268 1011.55 515.899 1011.53 521.53C1011.52 524.778 1011.52 528.025 1011.53 531.273C1011.54 534.797 1011.52 538.321 1011.51 541.846C1011.51 542.867 1011.52 543.889 1011.53 544.941C1011.47 551.121 1010.57 555.853 1007 561C1003.7 564.133 1000.3 566.815 995.668 567.188C990.001 566.759 986.648 565.664 982.473 561.766C978.848 557.42 977.625 554.273 977.624 548.589C977.616 547.286 977.608 545.984 977.601 544.642C977.607 543.198 977.614 541.754 977.621 540.31C977.618 538.775 977.614 537.239 977.608 535.704C977.596 531.484 977.602 527.263 977.611 523.043C977.618 518.492 977.608 513.941 977.599 509.39C977.586 501.504 977.584 493.618 977.589 485.731C977.596 474.323 977.584 462.916 977.566 451.508C977.537 432.992 977.52 414.477 977.511 395.962C977.51 394.299 977.51 394.299 977.51 392.603C977.506 383.61 977.502 374.616 977.499 365.623C977.496 357.761 977.492 349.9 977.489 342.038C977.488 340.931 977.488 339.824 977.487 338.683C977.479 320.238 977.458 301.793 977.429 283.347C977.412 271.965 977.406 260.583 977.413 249.201C977.417 241.406 977.41 233.61 977.396 225.815C977.388 221.314 977.385 216.813 977.395 212.312C977.404 208.194 977.399 204.077 977.383 199.959C977.38 198.467 977.382 196.975 977.39 195.483C977.399 193.459 977.388 191.435 977.376 189.411C977.376 188.285 977.376 187.16 977.376 186.001C976.952 182.617 975.992 180.741 974 178C968.96 174.184 964.288 172.391 958 173C952.023 175.831 947.404 180.187 942.837 184.87C942.171 185.54 941.505 186.211 940.819 186.902C939.385 188.346 937.955 189.795 936.528 191.246C934.27 193.544 932.001 195.831 929.73 198.117C924.916 202.965 920.113 207.826 915.313 212.687C909.737 218.334 904.157 223.975 898.563 229.604C896.33 231.857 894.106 234.119 891.881 236.382C890.513 237.761 889.144 239.14 887.775 240.518C887.16 241.148 886.545 241.779 885.912 242.428C881.574 246.767 877.888 249.262 871.563 249.375C865.926 249.244 862.913 246.647 858.75 243.062C855.562 239.305 854.797 236.417 855.188 231.562C856.105 222.872 861.837 217.723 867.719 211.861C868.61 210.961 869.502 210.061 870.42 209.134C872.858 206.674 875.305 204.224 877.754 201.777C879.804 199.727 881.85 197.673 883.896 195.619C888.727 190.768 893.567 185.926 898.411 181.088C903.393 176.113 908.36 171.123 913.32 166.126C917.591 161.824 921.872 157.531 926.161 153.246C928.717 150.693 931.269 148.136 933.811 145.568C936.652 142.701 939.512 139.855 942.375 137.01C943.204 136.167 944.033 135.325 944.887 134.457C955.019 124.469 963.115 122.246 977.218 122.369Z" fill="#A85C24"/>
<path d="M398.967 122.709C400.442 122.703 401.917 122.697 403.391 122.689C407.364 122.672 411.337 122.667 415.31 122.665C417.798 122.664 420.285 122.66 422.773 122.654C431.465 122.636 440.157 122.628 448.85 122.629C456.931 122.631 465.013 122.609 473.094 122.578C480.055 122.552 487.016 122.541 493.977 122.542C498.125 122.543 502.272 122.537 506.42 122.516C510.319 122.497 514.218 122.496 518.117 122.511C519.542 122.513 520.967 122.508 522.392 122.496C536.93 122.38 543.7 125.94 554 136C554.743 136.717 555.487 137.433 556.253 138.171C558.513 140.371 560.75 142.592 562.982 144.821C563.818 145.652 564.653 146.482 565.514 147.338C568.24 150.049 570.962 152.764 573.684 155.48C574.629 156.423 575.574 157.365 576.52 158.308C580.954 162.729 585.387 167.152 589.816 171.577C594.908 176.664 600.006 181.745 605.109 186.819C609.074 190.762 613.033 194.711 616.988 198.665C619.342 201.018 621.7 203.368 624.062 205.714C626.689 208.325 629.308 210.945 631.924 213.567C633.09 214.72 633.09 214.72 634.28 215.896C639.154 220.807 642.635 224.764 643.438 231.875C643.176 237.357 641.299 241.813 637.305 245.613C632.944 248.747 628.991 249.592 623.688 249.762C616.656 247.769 611.041 241.319 606.053 236.216C605.409 235.567 604.766 234.917 604.103 234.248C602.72 232.85 601.339 231.451 599.96 230.049C597.775 227.829 595.582 225.615 593.387 223.404C587.152 217.121 580.929 210.826 574.714 204.522C570.901 200.655 567.078 196.798 563.249 192.947C561.797 191.483 560.348 190.014 558.904 188.542C556.884 186.484 554.853 184.439 552.818 182.396C552.229 181.789 551.641 181.183 551.034 180.559C546.806 176.35 542.699 173.438 536.594 172.715C531.412 173.266 528.261 174.746 524.313 178.137C521.451 182.199 521.875 187.647 521.873 192.448C521.87 193.733 521.867 195.018 521.863 196.343C521.865 197.762 521.867 199.181 521.869 200.6C521.867 202.114 521.865 203.627 521.862 205.14C521.858 208.428 521.856 211.716 521.857 215.004C521.859 220.354 521.854 225.704 521.848 231.055C521.84 238.822 521.835 246.589 521.831 254.357C521.826 266.634 521.809 278.911 521.79 291.187C521.784 295.388 521.777 299.589 521.771 303.79C521.769 304.839 521.768 305.889 521.766 306.971C521.748 318.918 521.732 330.865 521.717 342.812C521.716 343.905 521.714 344.997 521.713 346.122C521.691 363.825 521.68 381.527 521.673 399.23C521.665 417.406 521.641 435.581 521.605 453.756C521.583 464.967 521.573 476.178 521.579 487.389C521.582 495.07 521.571 502.752 521.548 510.433C521.536 514.866 521.53 519.298 521.541 523.73C521.551 527.789 521.543 531.848 521.52 535.907C521.515 537.374 521.517 538.841 521.526 540.308C521.572 548.272 521.454 554.252 517 561C512.084 565.676 508.057 566.301 501.5 566.215C495.515 565.701 491.83 562.377 488 558C487.047 555.141 486.874 553.377 486.873 550.413C486.87 549.466 486.867 548.519 486.863 547.543C486.865 546.501 486.867 545.459 486.869 544.385C486.866 542.726 486.866 542.726 486.862 541.034C486.856 537.31 486.857 533.586 486.858 529.862C486.855 527.2 486.852 524.537 486.848 521.875C486.84 516.133 486.835 510.39 486.831 504.648C486.826 495.573 486.809 486.498 486.79 477.423C486.784 474.319 486.777 471.215 486.771 468.111C486.769 467.335 486.768 466.559 486.766 465.76C486.748 456.928 486.732 448.097 486.717 439.265C486.716 438.457 486.714 437.65 486.713 436.818C486.691 423.73 486.68 410.642 486.673 397.554C486.665 384.121 486.641 370.689 486.605 357.256C486.583 348.968 486.573 340.681 486.579 332.393C486.582 326.714 486.571 321.036 486.548 315.357C486.536 312.079 486.532 308.802 486.541 305.524C486.55 301.972 486.534 298.421 486.512 294.869C486.521 293.831 486.529 292.794 486.538 291.724C486.488 287.307 486.448 284.733 484.109 280.903C480.118 277.302 476.378 276.531 470.996 276.684C467.588 277.224 465.548 278.756 463 281C461.234 284.551 460.751 287.415 460.755 291.356C460.751 292.424 460.748 293.491 460.744 294.591C460.75 295.758 460.756 296.924 460.762 298.126C460.76 299.371 460.759 300.615 460.757 301.896C460.755 305.347 460.761 308.798 460.771 312.249C460.78 315.971 460.777 319.694 460.775 323.417C460.773 329.867 460.778 336.318 460.787 342.769C460.8 352.966 460.792 363.164 460.781 373.361C460.778 376.851 460.775 380.34 460.771 383.83C460.77 384.702 460.77 385.574 460.769 386.473C460.76 396.398 460.755 406.323 460.752 416.248C460.751 417.155 460.751 418.062 460.751 418.997C460.747 433.699 460.758 448.402 460.773 463.104C460.788 478.201 460.78 493.298 460.752 508.396C460.736 517.706 460.739 527.017 460.766 536.328C460.783 542.709 460.778 549.09 460.756 555.471C460.744 559.153 460.742 562.833 460.766 566.514C460.792 570.508 460.771 574.499 460.746 578.493C460.769 580.233 460.769 580.233 460.791 582.008C460.706 588.498 459.871 592.445 455.622 597.446C451.983 600.933 448.65 602.76 443.563 603.5C437.51 602.651 433.396 600.754 429.563 595.938C427.411 591.893 426.875 589.058 426.873 584.541C426.87 583.399 426.867 582.258 426.863 581.082C426.865 579.823 426.867 578.563 426.869 577.265C426.867 575.918 426.865 574.571 426.862 573.224C426.858 570.29 426.856 567.356 426.857 564.421C426.859 559.648 426.854 554.874 426.848 550.1C426.84 543.169 426.835 536.238 426.831 529.307C426.826 518.354 426.809 507.401 426.79 496.448C426.784 492.703 426.777 488.957 426.771 485.211C426.769 484.275 426.768 483.339 426.766 482.374C426.748 471.714 426.732 461.054 426.717 450.394C426.716 449.419 426.714 448.444 426.713 447.44C426.691 431.644 426.68 415.847 426.673 400.05C426.665 383.839 426.641 367.628 426.605 351.416C426.583 341.413 426.573 331.41 426.579 321.407C426.582 314.553 426.571 307.699 426.548 300.845C426.536 296.889 426.53 292.933 426.541 288.977C426.551 285.355 426.543 281.734 426.52 278.112C426.513 276.181 426.525 274.25 426.538 272.319C426.478 265.962 426.435 261.753 422 257C417.635 254.09 414.205 253.349 409 254C404.018 256.491 401.934 258.823 400 264C399.564 268.087 399.602 272.153 399.628 276.26C399.624 277.507 399.621 278.753 399.617 280.037C399.609 283.49 399.615 286.942 399.626 290.394C399.635 294.12 399.626 297.846 399.62 301.572C399.611 308.027 399.612 314.481 399.62 320.936C399.631 330.274 399.622 339.613 399.607 348.952C399.584 364.112 399.57 379.273 399.566 394.433C399.566 395.34 399.566 396.247 399.565 397.182C399.563 407.305 399.562 417.428 399.563 427.551C399.564 431.223 399.564 434.895 399.564 438.567C399.564 439.473 399.564 440.379 399.564 441.313C399.565 456.417 399.55 471.52 399.523 486.624C399.508 495.941 399.505 505.257 399.521 514.573C399.53 520.954 399.525 527.336 399.509 533.718C399.501 537.401 399.499 541.083 399.514 544.766C399.53 548.757 399.516 552.748 399.499 556.74C399.509 557.905 399.518 559.07 399.529 560.271C399.473 566.512 399.18 570.251 395 575C394.361 575.743 393.721 576.485 393.063 577.25C389.134 580.584 385.294 581.526 380.121 581.379C374.969 580.459 371.28 577.466 367.915 573.611C364.921 568.985 365.456 563.868 365.508 558.537C365.501 556.796 365.501 556.796 365.494 555.02C365.485 551.807 365.494 548.594 365.51 545.381C365.523 541.913 365.513 538.445 365.506 534.976C365.496 528.969 365.501 522.961 365.514 516.953C365.534 508.261 365.527 499.568 365.514 490.876C365.492 476.763 365.485 462.651 365.491 448.539C365.491 447.695 365.491 446.85 365.492 445.98C365.494 439.129 365.498 432.278 365.501 425.427C365.504 419.438 365.507 413.45 365.509 407.461C365.51 406.618 365.51 405.774 365.51 404.905C365.515 390.846 365.505 376.786 365.483 362.726C365.47 354.055 365.472 345.384 365.491 336.712C365.504 330.772 365.502 324.832 365.49 318.892C365.483 315.464 365.483 312.037 365.5 308.609C365.516 304.893 365.507 301.179 365.492 297.463C365.508 295.838 365.508 295.838 365.524 294.18C365.47 288.144 365.076 284.57 361 280C357.098 277.339 353.619 276.4 348.961 276.578C344.852 277.462 342.238 280.242 339.852 283.63C338.551 287.25 338.727 290.867 338.749 294.665C338.746 295.549 338.743 296.433 338.74 297.344C338.732 300.312 338.738 303.279 338.745 306.247C338.742 308.373 338.738 310.498 338.734 312.624C338.726 317.204 338.723 321.785 338.726 326.366C338.728 333.61 338.714 340.855 338.697 348.099C338.65 368.701 338.626 389.302 338.619 409.904C338.615 421.279 338.597 432.654 338.564 444.03C338.544 451.23 338.542 458.43 338.552 465.63C338.555 470.113 338.541 474.596 338.522 479.079C338.517 481.156 338.518 483.233 338.527 485.31C338.538 488.149 338.525 490.987 338.506 493.827C338.515 494.645 338.524 495.463 338.533 496.306C338.458 501.955 337.158 506.277 334 511C329.196 515.461 326.086 516.371 319.672 516.27C315.406 515.839 312.382 514.612 309 512C304.24 505.875 304.434 499.036 304.492 491.605C304.483 489.749 304.483 489.749 304.473 487.856C304.46 484.439 304.465 481.022 304.477 477.605C304.486 473.913 304.472 470.221 304.461 466.529C304.443 459.3 304.447 452.071 304.459 444.843C304.468 438.962 304.469 433.081 304.465 427.201C304.464 426.363 304.464 425.525 304.463 424.661C304.462 422.959 304.46 421.256 304.459 419.553C304.448 403.59 304.461 387.627 304.482 371.664C304.5 357.993 304.497 344.322 304.479 330.65C304.457 314.756 304.449 298.861 304.461 282.966C304.462 281.267 304.464 279.569 304.465 277.87C304.465 277.034 304.466 276.198 304.467 275.337C304.47 269.474 304.464 263.61 304.455 257.747C304.444 250.586 304.447 243.425 304.468 236.264C304.478 232.617 304.483 228.969 304.469 225.322C304.367 194.879 310.142 170.364 331.992 147.852C350.36 129.874 373.735 122.689 398.967 122.709Z" fill="#A95D24"/>
<path d="M637.777 281.86C638.756 281.857 639.736 281.854 640.745 281.851C644.024 281.842 647.303 281.84 650.582 281.839C652.935 281.834 655.287 281.829 657.64 281.824C664.697 281.809 671.754 281.803 678.812 281.798C682.141 281.796 685.471 281.792 688.8 281.788C699.878 281.776 710.957 281.766 722.035 281.762C723.098 281.762 723.098 281.762 724.182 281.762C725.247 281.761 725.247 281.761 726.334 281.761C727.773 281.761 729.211 281.76 730.65 281.76C731.721 281.759 731.721 281.759 732.813 281.759C744.362 281.755 755.911 281.738 767.46 281.714C779.337 281.691 791.213 281.678 803.09 281.677C809.75 281.676 816.411 281.67 823.071 281.652C829.342 281.636 835.613 281.634 841.884 281.642C844.177 281.643 846.471 281.639 848.765 281.629C860.567 281.581 871.577 281.694 883 285C883.767 285.217 884.534 285.435 885.323 285.658C908.293 292.719 926.084 308.48 937.313 329.563C941.089 336.965 942.508 344.334 943.527 352.527C943.619 355.821 943.619 355.821 945 357C945.287 358.972 945.516 360.952 945.719 362.934C945.91 364.742 945.91 364.742 946.106 366.588C946.236 367.858 946.366 369.129 946.5 370.438C946.757 372.937 947.017 375.435 947.281 377.934C947.395 379.048 947.51 380.162 947.627 381.31C947.849 383.964 947.849 383.964 949 386C949.262 388.52 949.473 391.025 949.649 393.551C949.766 395.123 949.884 396.696 950.003 398.268C950.064 399.093 950.124 399.917 950.187 400.766C951.1 413.112 952.137 425.356 954.079 437.59C954.986 443.419 955.374 449.096 955 455C955.66 455 956.32 455 957 455C957.147 459.416 957.235 463.832 957.313 468.25C957.355 469.485 957.396 470.72 957.44 471.992C957.605 484.595 953.464 494.023 946 504C945.585 504.603 945.17 505.207 944.742 505.828C938.217 514.503 926.321 520.778 915.746 522.543C900.361 524.42 886.99 522.662 874.309 513C862.936 503.147 855.134 490.318 853.734 475.105C853.593 471.212 853.563 467.325 853.561 463.43C853.383 454.316 850.618 447.223 845 440C843.179 438.359 841.322 436.806 839.391 435.297C838.932 434.869 838.473 434.441 838 434C838 433.34 838 432.68 838 432C832.035 429.544 826.951 427.753 820.437 427.719C819.133 427.708 817.83 427.696 816.487 427.685C815.054 427.682 813.622 427.68 812.189 427.678C810.671 427.668 809.152 427.658 807.634 427.648C803.518 427.621 799.402 427.609 795.286 427.6C792.71 427.594 790.134 427.586 787.558 427.577C779.485 427.549 771.412 427.53 763.338 427.522C754.044 427.513 744.75 427.478 735.455 427.42C728.255 427.377 721.055 427.357 713.854 427.354C709.561 427.352 705.269 427.34 700.976 427.304C696.933 427.271 692.89 427.267 688.846 427.285C687.371 427.286 685.896 427.278 684.42 427.258C672.575 427.107 663.519 429.697 654.563 437.75C648.999 443.765 644.906 451.53 644.86 459.797C644.59 476.154 642.658 489.288 633 503C632.601 503.571 632.201 504.142 631.789 504.73C626.202 512.024 618.234 516.332 610 520C609.008 520.483 609.008 520.483 607.996 520.977C597.456 525.391 583.437 524.1 572.957 520.316C559.159 514.174 548.34 503.36 542.696 489.234C537.391 472.208 540.448 447.999 544.57 430.996C545.223 427.965 545.325 424.968 545.438 421.875C546.125 407.784 548.2 393.768 550.877 379.927C552.414 371.502 553.052 362.944 553.735 354.414C554.429 346.717 555.948 340.108 559 333C559.66 333 560.32 333 561 333C561.096 332.126 561.191 331.252 561.289 330.352C564.199 316.632 579.424 303.334 590.617 296.031C605.51 287.089 620.37 281.843 637.777 281.86Z" fill="#EE934D"/>
<path d="M669 90C687.351 89.8593 705.702 89.7538 724.054 89.6891C732.577 89.6583 741.099 89.6163 749.621 89.5474C757.057 89.4872 764.493 89.4488 771.929 89.4355C775.859 89.4277 779.789 89.4097 783.72 89.3656C815.168 89.0261 815.168 89.0261 829 96C829.99 96.495 829.99 96.495 831 97C831 97.66 831 98.32 831 99C831.99 99.2784 831.99 99.2784 833 99.5625C844.316 104.985 851.841 116.545 856 128C859.947 140.427 859.427 152.156 858 165C846.12 165 834.24 165 822 165C822.557 167.826 823.114 170.651 823.688 173.562C826.272 186.924 828.371 200.365 830.491 213.806C830.816 215.848 831.172 217.885 831.566 219.914C832 223 832 223 832 231C778.54 231 725.08 231 670 231C673.395 206.104 673.395 206.104 675 197.937C676.349 190.81 677.52 183.687 678.5 176.5C679.536 168.924 680.757 161.398 682.125 153.875C682.296 152.932 682.467 151.989 682.643 151.018C683.278 147.581 683.893 144.321 685 141C686.055 132.773 682.467 125.995 679.25 118.625C678.704 117.35 678.16 116.073 677.617 114.797C676.566 112.33 675.512 109.864 674.455 107.399C671.762 101.108 671.762 101.108 670.609 98.3359C670.295 97.5862 669.98 96.8364 669.655 96.064C669 94 669 94 669 90Z" fill="#A95D24"/>
<path d="M684 473C726.9 473 769.8 473 814 473C821.077 488.923 828.129 504.832 834.963 520.858C837.228 526.167 839.499 531.474 841.77 536.781C842.446 538.362 842.446 538.362 843.136 539.975C847.047 549.118 850.985 558.25 854.938 567.375C856.214 570.322 857.49 573.268 858.766 576.215C859.256 577.348 859.256 577.348 859.757 578.505C862.651 585.189 865.537 591.878 868.422 598.566C868.894 599.66 869.366 600.754 869.852 601.882C872.246 607.433 874.639 612.984 877.03 618.537C881.09 627.964 885.158 637.387 889.293 646.781C889.916 648.201 890.539 649.62 891.161 651.039C892.265 653.555 893.378 656.066 894.497 658.576C894.97 659.653 895.443 660.73 895.93 661.84C896.334 662.751 896.739 663.662 897.156 664.601C898 667 898 667 898 671C897.401 671.282 896.801 671.565 896.184 671.855C887.54 676.048 879.237 680.782 870.924 685.593C869.959 686.146 868.994 686.699 868 687.27C867.134 687.771 866.267 688.272 865.375 688.788C863.22 689.888 861.363 690.539 859 691C858.703 690.095 858.407 689.189 858.101 688.256C851.792 668.557 851.792 668.557 844.562 649.188C841.151 640.778 838.341 632.176 835.5 623.562C831.115 610.293 826.672 597.045 822.104 583.837C821.459 581.968 820.817 580.098 820.178 578.227C813.884 557.093 813.884 557.093 799 542C793.268 539.532 788.73 538.558 782.524 538.596C781.718 538.589 780.912 538.582 780.081 538.575C777.441 538.557 774.801 538.561 772.16 538.566C770.31 538.562 768.46 538.557 766.609 538.551C762.74 538.542 758.871 538.544 755.002 538.554C750.062 538.565 745.122 538.545 740.181 538.516C736.363 538.498 732.544 538.498 728.726 538.504C726.905 538.504 725.084 538.498 723.264 538.485C712.027 538.419 702.514 538.393 693.688 546.312C693.073 546.845 692.458 547.377 691.824 547.926C687.62 552.707 685.341 558.328 683.266 564.277C683.026 564.958 682.787 565.638 682.541 566.339C681.77 568.536 681.01 570.737 680.25 572.938C679.717 574.464 679.184 575.99 678.65 577.516C675.198 587.415 671.825 597.341 668.587 607.312C666.882 612.529 665.005 617.624 662.898 622.693C661.664 625.862 660.758 629.102 659.82 632.369C659.045 634.855 658.144 637.217 657.149 639.623C654.957 645.036 653.014 650.518 651.109 656.039C650.76 657.046 650.41 658.053 650.05 659.09C648.948 662.268 647.849 665.446 646.75 668.625C645.998 670.796 645.245 672.966 644.492 675.137C642.659 680.424 640.828 685.711 639 691C635.367 690.171 632.492 688.792 629.203 687.016C628.079 686.41 626.955 685.804 625.797 685.18C625.214 684.862 624.63 684.545 624.029 684.218C622.272 683.262 620.511 682.315 618.75 681.367C612.702 678.094 606.779 674.729 601 671C601.408 663.593 604.016 657.86 607.125 651.188C608.239 648.738 609.351 646.288 610.461 643.836C610.898 642.875 610.898 642.875 611.343 641.895C614.586 634.746 617.671 627.532 620.75 620.312C621.368 618.867 621.986 617.421 622.604 615.975C623.965 612.79 625.326 609.605 626.686 606.419C631.283 595.652 635.891 584.888 640.5 574.125C641.259 572.352 641.259 572.352 642.034 570.543C650.736 550.223 659.512 529.937 668.338 509.67C668.793 508.625 669.248 507.579 669.716 506.502C670.543 504.602 671.371 502.703 672.2 500.803C676.217 491.569 680.091 482.284 684 473Z" fill="#A85C24"/>
<path d="M737 553C744.92 553 752.84 553 761 553C761.975 560.644 762.949 568.288 763.922 575.933C764.374 579.487 764.827 583.04 765.28 586.594C769.673 621.02 773.779 655.475 777.726 689.956C778.164 693.774 778.603 697.592 779.043 701.41C779.208 702.84 779.372 704.271 779.535 705.701C779.76 707.675 779.988 709.649 780.216 711.622C780.343 712.737 780.471 713.852 780.603 715.001C780.856 716.911 781.164 718.815 781.543 720.704C782.121 723.608 782.095 726.355 782.063 729.312C782.053 730.381 782.044 731.45 782.035 732.551C782.024 733.359 782.012 734.167 782 735C779.03 735.99 779.03 735.99 776 737C776 737.66 776 738.32 776 739C773.03 739.99 770.06 740.98 767 742C767 742.66 767 743.32 767 744C764.03 744.99 761.06 745.98 758 747C758 747.66 758 748.32 758 749C750.714 752.429 750.714 752.429 746 752C746 751.34 746 750.68 746 750C745.293 749.895 744.585 749.79 743.856 749.682C740.638 748.914 738.198 747.683 735.297 746.094C734.235 745.515 733.173 744.936 732.078 744.34C730.431 743.429 730.431 743.429 728.75 742.5C727.079 741.589 727.079 741.589 725.375 740.66C717.164 736.164 717.164 736.164 716 735C715.526 727.906 716.233 720.999 717.313 714C718.522 705.68 719.546 697.359 720.438 689C721.463 679.478 722.64 669.988 723.938 660.5C725.485 649.159 726.846 637.809 728.112 626.434C729.887 610.537 731.923 594.675 733.982 578.813C734.108 577.838 734.234 576.863 734.364 575.858C734.599 574.04 734.836 572.223 735.074 570.405C735.825 564.606 736.418 558.824 737 553Z" fill="#A85C24"/>
<path d="M714.625 552.938C716.579 552.954 716.579 552.954 718.572 552.971C719.703 552.981 720.834 552.99 722 553C721.422 564.728 720.226 576.293 718.75 587.938C718.526 589.733 718.303 591.529 718.08 593.324C717.619 597.04 717.155 600.756 716.689 604.472C715.711 612.301 714.76 620.133 713.808 627.965C713.291 632.217 712.773 636.47 712.254 640.723C712.151 641.567 712.048 642.411 711.942 643.281C711.308 648.476 710.673 653.672 710.037 658.867C707.297 681.237 704.608 703.613 702 726C698.5 725.312 695.72 723.916 692.59 722.227C691.526 721.654 690.461 721.082 689.365 720.492C688.234 719.876 687.103 719.26 685.938 718.625C684.783 717.997 683.628 717.37 682.438 716.723C678.953 714.825 675.476 712.913 672 711C670.989 710.448 669.979 709.895 668.938 709.326C666.262 707.858 663.598 706.371 660.938 704.875C660.141 704.439 659.345 704.003 658.525 703.553C657.804 703.141 657.083 702.729 656.34 702.305C655.715 701.954 655.089 701.603 654.445 701.242C652.505 699.575 652.355 698.522 652 696C652.545 693.586 652.545 693.586 653.5 690.856C653.856 689.823 654.212 688.79 654.578 687.726C654.977 686.605 655.375 685.483 655.785 684.328C656.397 682.566 656.397 682.566 657.021 680.769C658.129 677.585 659.246 674.404 660.367 671.225C661.526 667.934 662.672 664.639 663.82 661.344C665.889 655.412 667.967 649.483 670.05 643.555C672.158 637.554 674.252 631.547 676.344 625.539C678.673 618.855 681.004 612.171 683.348 605.492C683.575 604.843 683.802 604.193 684.036 603.524C685.158 600.333 686.312 597.157 687.508 593.993C688.929 590.227 690.236 586.428 691.523 582.613C692.231 580.55 692.941 578.488 693.651 576.427C694.135 575.013 694.614 573.599 695.088 572.182C695.782 570.113 696.495 568.05 697.211 565.988C697.626 564.767 698.042 563.545 698.47 562.286C702.17 554.338 706.49 552.841 714.625 552.938Z" fill="#A85C24"/>
<path d="M776 553C778.376 552.891 780.747 552.812 783.125 552.75C783.79 552.716 784.455 552.683 785.141 552.648C790.282 552.548 793.067 553.755 797 557C798.69 559.535 799.491 561.154 800.378 563.972C801.505 567.472 802.663 570.956 803.866 574.43C804.2 575.396 804.535 576.362 804.879 577.358C805.232 578.377 805.585 579.396 805.949 580.445C806.326 581.532 806.702 582.619 807.09 583.739C807.885 586.037 808.681 588.335 809.477 590.632C810.667 594.066 811.856 597.5 813.045 600.934C815.361 607.623 817.68 614.312 820 621C820.548 622.581 820.548 622.581 821.108 624.194C825.022 635.481 828.959 646.758 833 658C833.84 660.355 834.68 662.711 835.52 665.066C837.145 669.623 838.79 674.171 840.449 678.715C841.196 680.789 841.942 682.863 842.688 684.937C843.039 685.884 843.39 686.831 843.752 687.807C844.065 688.684 844.377 689.561 844.699 690.465C844.976 691.224 845.253 691.983 845.538 692.765C846.122 695.588 845.98 697.284 845 700C843.048 701.555 843.048 701.555 840.461 702.875C839.498 703.379 838.535 703.884 837.543 704.404C836.498 704.93 835.452 705.457 834.375 706C832.192 707.137 830.009 708.276 827.828 709.418C826.703 710.002 825.579 710.587 824.42 711.189C817.901 714.641 811.526 718.349 805.138 722.037C804.229 722.557 803.32 723.077 802.383 723.613C801.582 724.075 800.782 724.537 799.958 725.013C798 726 798 726 796 726C795.885 724.976 795.77 723.952 795.652 722.897C793.103 700.195 790.499 677.5 787.83 654.812C787.53 652.256 787.231 649.7 786.933 647.143C785.513 634.956 784.05 622.804 782.047 610.698C780.637 602.046 779.761 593.343 778.875 584.625C778.622 582.165 778.368 579.705 778.11 577.245C777.953 575.737 777.798 574.229 777.646 572.72C777.271 569.095 776.746 565.566 776 562C775.936 560.397 775.914 558.792 775.938 557.187C775.947 556.397 775.956 555.607 775.965 554.793C775.976 554.201 775.988 553.61 776 553Z" fill="#A85C24"/>
<path d="M626 315C637.22 315 648.44 315 660 315C660 325.23 660 335.46 660 346C670.23 346 680.46 346 691 346C691 356.89 691 367.78 691 379C680.44 379 669.88 379 659 379C659 389.56 659 400.12 659 411C648.11 411 637.22 411 626 411C626 400.44 626 389.88 626 379C615.77 379 605.54 379 595 379C595 368.11 595 357.22 595 346C605.23 346 615.46 346 626 346C626 335.77 626 325.54 626 315Z" fill="#020100"/>
<path d="M627 347C637.56 347 648.12 347 659 347C659 357.56 659 368.12 659 379C648.44 379 637.88 379 627 379C627 368.44 627 357.88 627 347Z" fill="#EC924C"/>
<path d="M627 379C637.56 379 648.12 379 659 379C659 389.23 659 399.46 659 410C648.44 410 637.88 410 627 410C627 399.77 627 389.54 627 379Z" fill="#020100"/>
<path d="M596 347C605.9 347 615.8 347 626 347C626 357.23 626 367.46 626 378C616.1 378 606.2 378 596 378C596 367.77 596 357.54 596 347Z" fill="black"/>
<path d="M895.25 348.625C899.122 350.835 901.203 352.807 903 357C904.124 362.516 904.07 366.946 901.438 372C898.301 376.058 895.784 378.569 890.719 379.793C885.932 379.996 881.416 379.919 877.438 377C873.656 372.346 871.288 368.384 870.562 362.375C871.248 357.09 873.001 353.659 877 350.187C882.724 346.014 888.89 345.76 895.25 348.625Z" fill="#060402"/>
<path d="M831.25 348.625C835.104 350.818 837.188 352.848 839 357C839.75 362.175 839.807 367.179 837.437 371.937C833.878 376.41 830.886 378.555 825.312 379.414C820.895 379.642 817.177 379.708 813.562 376.937C808.876 371.566 806.251 367.475 806.613 360.141C807.453 355.49 810.165 352.753 813.562 349.687C819.084 345.865 825.282 345.937 831.25 348.625Z" fill="#070402"/>
<path d="M863.25 316.625C867.104 318.818 869.188 320.848 871 325C871.75 330.175 871.807 335.179 869.438 339.937C865.883 344.403 862.889 346.511 857.348 347.449C852.422 347.753 848.922 347.533 845 344.375C841.141 340.414 838.891 336.593 838.625 331C838.835 326.399 840.13 322.89 843.43 319.555C849.431 314.329 856.035 313.375 863.25 316.625Z" fill="#050301"/>
<path d="M856.875 378.562C861.326 378.605 863.929 380.609 867.336 383.297C870.659 386.698 871.309 389.684 871.375 394.375C871.268 399.41 870.462 402.174 867 406C866.175 406.949 865.35 407.897 864.5 408.875C860.701 411.842 856.576 411.755 851.914 411.547C847.322 410.685 844.777 408.687 842 405C839.306 400.22 838.404 396.462 839 391C840.769 386.344 843.135 383.146 847 380C850.292 379.049 853.466 378.947 856.875 378.562Z" fill="#070402"/>
<path d="M626 315C626.33 315 626.66 315 627 315C627 325.23 627 335.46 627 346C637.56 346 648.12 346 659 346C659 335.77 659 325.54 659 315C659.33 315 659.66 315 660 315C660 325.23 660 335.46 660 346C670.23 346 680.46 346 691 346C691 346.33 691 346.66 691 347C680.77 347 670.54 347 660 347C660 357.23 660 367.46 660 378C670.23 378 680.46 378 691 378C691 378.33 691 378.66 691 379C680.44 379 669.88 379 659 379C659 368.44 659 357.88 659 347C648.44 347 637.88 347 627 347C627 367.79 627 388.58 627 410C637.56 410 648.12 410 659 410C659 410.33 659 410.66 659 411C648.11 411 637.22 411 626 411C626 400.44 626 389.88 626 379C615.77 379 605.54 379 595 379C595 368.11 595 357.22 595 346C605.23 346 615.46 346 626 346C626 335.77 626 325.54 626 315ZM596 347C596 357.23 596 367.46 596 378C605.9 378 615.8 378 626 378C626 367.77 626 357.54 626 347C616.1 347 606.2 347 596 347Z" fill="#6C4222"/>
<path d="M1140 277C1140.66 277.33 1141.32 277.66 1142 278C1141.5 278.371 1141.01 278.743 1140.5 279.125C1137.54 281.638 1135.35 283.678 1134.34 287.504C1134.1 290.537 1134.07 293.506 1134.12 296.548C1134.11 297.705 1134.1 298.863 1134.09 300.055C1134.07 303.255 1134.08 306.454 1134.1 309.654C1134.12 313.109 1134.1 316.564 1134.08 320.019C1134.06 326.002 1134.06 331.983 1134.07 337.965C1134.1 346.614 1134.09 355.263 1134.07 363.912C1134.03 377.945 1134.03 391.978 1134.04 406.011C1134.06 419.641 1134.06 433.271 1134.04 446.901C1134.04 448.162 1134.04 448.162 1134.04 449.448C1134.03 453.665 1134.03 457.881 1134.02 462.098C1133.97 497.065 1133.97 532.033 1134 567C1133.67 567 1133.34 567 1133 567C1132.89 531.05 1132.8 495.099 1132.74 459.149C1132.74 454.906 1132.73 450.662 1132.73 446.419C1132.72 445.574 1132.72 444.729 1132.72 443.859C1132.7 430.177 1132.66 416.494 1132.61 402.812C1132.57 388.775 1132.54 374.738 1132.53 360.701C1132.52 352.038 1132.5 343.375 1132.46 334.711C1132.43 328.773 1132.43 322.834 1132.43 316.895C1132.44 313.467 1132.43 310.04 1132.4 306.612C1132.38 302.896 1132.38 299.181 1132.4 295.465C1132.38 294.382 1132.37 293.298 1132.35 292.181C1132.44 284.043 1132.44 284.043 1135.41 280.346C1138 278 1138 278 1140 277Z" fill="#1B0E03"/>
<path d="M549 390C549.33 390 549.66 390 550 390C550.518 403.228 548.938 415.931 547 429C546.67 429 546.34 429 546 429C545.482 415.772 547.062 403.069 549 390Z" fill="#A16333"/>
<path d="M954 436C954.99 436.495 954.99 436.495 956 437C956.379 440.09 956.379 440.09 956.562 443.938C956.626 448.634 956.626 448.634 958 453C958.085 454.886 958.107 456.776 958.098 458.664C958.094 459.786 958.091 460.907 958.088 462.062C958.08 463.238 958.071 464.414 958.062 465.625C958.058 466.808 958.053 467.992 958.049 469.211C958.037 472.141 958.021 475.07 958 478C957.67 478 957.34 478 957 478C957 470.41 957 462.82 957 455C956.34 455 955.68 455 955 455C954.67 448.73 954.34 442.46 954 436Z" fill="#5C391D"/>
<path d="M340 141C340.66 141.33 341.32 141.66 342 142C336.39 147.61 330.78 153.22 325 159C324.34 158.67 323.68 158.34 323 158C324.891 155.913 326.788 153.83 328.688 151.75C329.218 151.163 329.748 150.577 330.295 149.973C333.332 146.656 336.386 143.709 340 141Z" fill="#894B1C"/>
<path d="M586 299C586.66 299.33 587.32 299.66 588 300C586.069 301.985 584.13 303.963 582.188 305.938C581.64 306.501 581.093 307.065 580.529 307.646C576.34 311.887 576.34 311.887 573 313C574.566 308.963 577.442 306.529 580.625 303.75C581.141 303.291 581.656 302.832 582.188 302.359C583.453 301.234 584.726 300.116 586 299Z" fill="#BE753D"/>
<path d="M659 433C659.66 433.33 660.32 433.66 661 434C659.925 435.299 658.84 436.589 657.75 437.875C657.147 438.594 656.543 439.314 655.922 440.055C654.029 441.971 652.463 442.964 650 444C651.408 440.785 653.103 438.678 655.625 436.25C656.257 435.636 656.888 435.023 657.539 434.391C658.021 433.932 658.503 433.473 659 433Z" fill="#311E0F"/>
<path d="M705 554C705.66 554.33 706.32 554.66 707 555C705.855 556.052 705.855 556.052 704.688 557.125C702.034 559.964 700.56 562.469 699 566C698.67 565.34 698.34 564.68 698 564C698.672 562.125 698.672 562.125 699.75 560C700.095 559.299 700.441 558.598 700.797 557.875C702 556 702 556 705 554Z" fill="#81461A"/>
<path d="M880 348C880.66 348.33 881.32 348.66 882 349C880.881 350.173 879.755 351.338 878.625 352.5C877.999 353.15 877.372 353.799 876.727 354.469C875 356 875 356 873 356C874.491 352.205 876.757 350.39 880 348Z" fill="#24160B"/>
<path d="M848 316C848.66 316.33 849.32 316.66 850 317C848.881 318.173 847.755 319.338 846.625 320.5C845.999 321.15 845.372 321.799 844.727 322.469C843 324 843 324 841 324C842.491 320.205 844.757 318.39 848 316Z" fill="#28190C"/>
<path d="M467 277C467.66 277.33 468.32 277.66 469 278C466.69 280.31 464.38 282.62 462 285C461.67 284.34 461.34 283.68 461 283C463 281 465 279 467 277Z" fill="#221205"/>
</svg>
