<?xml version="1.0" encoding="UTF-8" standalone="no"?>
<!DOCTYPE svg PUBLIC "-//W3C//DTD SVG 1.1//EN" "http://www.w3.org/Graphics/SVG/1.1/DTD/svg11.dtd">
<svg width="100%" height="100%" viewBox="0 0 2246 2246" version="1.1" xmlns="http://www.w3.org/2000/svg" xmlns:xlink="http://www.w3.org/1999/xlink" xml:space="preserve" xmlns:serif="http://www.serif.com/" style="fill-rule:evenodd;clip-rule:evenodd;stroke-linejoin:round;stroke-miterlimit:2;">
    <g transform="matrix(1.70256,0,0,1.70256,-709.636,-755.491)">
        <g transform="matrix(1,0,0,1,68.3082,-227.167)">
            <path d="M748.372,1727.19C722.995,1727.19 702.641,1720.05 687.309,1705.77C671.977,1691.5 664.311,1662.16 664.311,1617.75C664.311,1573.34 671.184,1508.31 684.93,1422.66C705.02,1290.49 715.065,1174.71 715.065,1075.31C715.065,981.207 706.606,909.834 689.688,861.195C607.213,863.309 532.668,872.826 466.053,889.744C440.676,893.973 425.872,896.088 421.643,896.088C411.069,896.088 403.932,893.973 400.231,889.744C396.53,885.514 394.68,876.527 394.68,862.781C394.68,844.805 397.588,826.037 403.403,806.475C409.219,786.914 416.885,770.26 426.401,756.514C443.319,731.137 471.34,715.805 510.463,710.518C556.987,706.289 616.2,702.059 688.102,697.83C760.003,693.6 828.204,691.486 892.704,691.486C1026.99,691.486 1104.71,693.6 1125.86,697.83C1140.66,699.945 1150.97,704.439 1156.78,711.311C1162.6,718.184 1165.51,729.023 1165.51,743.826C1165.51,772.375 1152.82,800.924 1127.44,829.473C1114.75,844.277 1102.86,854.586 1091.76,860.402C1080.65,866.217 1066.11,868.596 1048.14,867.539C1001.61,863.309 940.286,861.195 864.155,861.195C863.098,923.58 854.639,1016.1 838.778,1138.76C823.975,1252.95 816.573,1346 816.573,1417.9C816.573,1459.14 820.274,1492.98 827.676,1519.41C835.077,1545.85 832.501,1574.82 852.591,1593.86C867.395,1608.66 863.86,1625.08 863.86,1642C863.86,1666.32 877.637,1680.93 850.673,1699.43C823.71,1717.93 789.61,1727.19 748.372,1727.19Z" style="fill-rule:nonzero;"/>
        </g>
        <g transform="matrix(1,0,0,1,324.458,10.3992)">
            <g transform="matrix(1586.06,0,0,1586.06,1398.66,1711.33)">
            </g>
            <text x="381.991px" y="1711.33px" style="font-family:'AkayaTelivigala-Regular', 'AkayaTelivigala';font-size:1586.07px;">G</text>
        </g>
    </g>
</svg>
